<?xml version="1.0" encoding="utf-8"?>
<!-- Generator: Adobe Illustrator 28.2.0, SVG Export Plug-In . SVG Version: 6.00 Build 0)  -->
<svg version="1.1" id="Layer_1" xmlns="http://www.w3.org/2000/svg" xmlns:xlink="http://www.w3.org/1999/xlink" x="0px" y="0px"
	 viewBox="0 0 612 792" style="enable-background:new 0 0 612 792;" xml:space="preserve">
<style type="text/css">
	.st0{display:none;}
	.st1{display:inline;fill:#FFFFFF;}
	.st2{fill:#D5BC9D;}
	.st3{fill:#2E4446;}
	.st4{fill:#0C0C0D;}
	.st5{fill:#FFFFFF;}
</style>
<g>
	<g id="Background_00000013874594638385938520000008118466675444724101_" class="st0">
		<path class="st1" d="M722.38-20.38c0,416.38,0,416.38,0,832.76c-416.38,0-416.38,0-832.76,0c0-416.38,0-416.38,0-832.76
			C306-20.38,306-20.38,722.38-20.38z"/>
	</g>
	<g>
		<path class="st2" d="M310.47,79.65c133.37,72.79,133.37,72.79,266.74,145.57c0.2,17.69,0.2,17.69,0.41,35.38
			c-133.57-72.58-133.57-72.58-267.15-145.16C310.47,97.54,310.47,97.54,310.47,79.65z"/>
		<path class="st3" d="M300.71,80.46c2.9,0.53,2.94,31.39,0.81,34.16C168.36,187.2,168.36,187.2,35.19,259.78
			c0.61-17.69,0.61-17.69,1.22-35.38C168.56,152.43,168.56,152.43,300.71,80.46z"/>
		<path class="st3" d="M36.41,533.44c133.37,73.6,133.37,73.6,266.74,147.2c0.61,16.47,0.61,16.47,1.22,32.94
			c-0.61,0.61-0.61,0.61-1.22,1.22c-89.24-48.66-178.24-97.84-267.56-146.38C36,550.92,36,550.92,36.41,533.44z"/>
		<path class="st2" d="M577.22,533.44c0.2,16.87,0.2,16.87,0.41,33.75c-88.53,50.16-179.3,97.29-267.96,147.6
			c-0.61-0.61-0.61-0.61-1.22-1.22c0.61-16.47,0.61-16.47,1.22-32.94C399.37,632.53,488.71,583.72,577.22,533.44z"/>
		<path class="st3" d="M549.57,249.62c14.03,7.93,14.03,7.93,28.06,15.86c0,131.75,0,131.75,0,263.49
			c-14.44,8.34-14.44,8.34-28.87,16.67C549.16,397.63,549.16,397.63,549.57,249.62z"/>
		<path class="st2" d="M61.62,249.62c0.83,0.04,1.61-0.28,2.03,0.41c-0.2,147.4-0.2,147.4-0.41,294.8
			c-14.03-7.93-14.03-7.93-28.06-15.86c0-132.15,0-132.15,0-264.3C38.79,263.07,60.1,249.55,61.62,249.62z"/>
		<g>
			<path class="st4" d="M304.78,116.24c119.55,64.65,119.55,64.65,239.09,129.31c1.93,100.46-1.05,201.46,1.22,302.12
				c-118.53,65.26-118.53,65.26-237.06,130.53C227.2,636.3,147.39,591.31,67.72,546.86c0-150.45,0-150.45,0-300.9
				C186.25,181.1,186.25,181.1,304.78,116.24z"/>
			<path class="st5" d="M177.1,215.46c31.72,0,31.72,0,63.43,0c0.45,0.17,2.73,4.01,2.85,4.47c1.99,7.78-1.81,137.59,0.41,160.62
				C312.91,298,312.91,298,382.04,215.46c42.49,0.61,42.49,0.61,84.98,1.22c-69.94,78.88-69.94,78.88-139.88,157.77
				c72.79,100.44,72.79,100.44,145.57,200.87c-0.2,1.42-0.2,1.42-0.41,2.85c-41.48,0-41.48,0-82.95,0
				c-52.05-75.22-52.05-75.22-104.09-150.45c-20.94,24.19-20.94,24.19-41.88,48.39c-0.97,13.36,1.6,94.64-0.81,99.22
				c-0.38,0.72-3,2.67-3.66,2.85c-4.89,1.3-53.59-0.59-64.65-1.22c0.41-179.73,0.41-179.73,0.81-359.45
				C176.08,216.48,176.08,216.48,177.1,215.46z"/>
		</g>
	</g>
</g>
</svg>
